<?xml version="1.0" standalone="no"?><!DOCTYPE svg PUBLIC "-//W3C//DTD SVG 1.1//EN" "http://www.w3.org/Graphics/SVG/1.1/DTD/svg11.dtd"><svg t="1684048209921" class="icon" viewBox="0 0 1024 1024" version="1.1" xmlns="http://www.w3.org/2000/svg" p-id="5028" xmlns:xlink="http://www.w3.org/1999/xlink" width="128" height="128"><path d="M512.162887 361.2609a296.223344 296.223344 0 0 1 78.167726 10.453957 362.933533 362.933533 0 0 0 16.210603-107.522439 361.776628 361.776628 0 0 0-94.364391-244.176574A363.588648 363.588648 0 0 0 434.036976 371.714857a296.181529 296.181529 0 0 1 78.125911-10.453957z" fill="#8DD049" p-id="5029"></path><path d="M511.507772 364.27164C451.042081 251.53616 324.507377 174.023549 177.998645 174.023549c0 0 116.011053 67.978602 159.820105 239.186551z" fill="#8DD049" p-id="5030"></path><path d="M337.609671 206.90473a376.760634 376.760634 0 0 1 80.383965 47.600354 362.710515 362.710515 0 0 1 14.105873-91.590608v-12.544749c-46.471326-65.609038-117.809134-107.564255-197.928265-107.564255 0 0 65.636916 65.358143 102.476663 163.527775zM685.656768 206.90473a376.760634 376.760634 0 0 0-80.383965 47.600354 362.710515 362.710515 0 0 0-14.105874-91.590608v-12.544749c46.471326-65.609038 117.809134-107.564255 197.928266-107.564255 0 0-65.636916 65.358143-102.476663 163.527775z" fill="#599917" p-id="5031"></path><path d="M512.483475 364.27164c60.465691-112.735479 187.000395-190.248091 333.495188-190.248091 0 0-116.011053 67.978602-159.820105 239.186551z" fill="#8DD049" p-id="5032"></path><path d="M512.162887 361.2609c-163.472021 0-296.000327 132.528306-296.000327 296.000326v212.995903a133.810658 133.810658 0 0 0 133.810658 133.810658h324.44903a133.810658 133.810658 0 0 0 133.810658-133.810658V657.261226c-0.069693-163.485959-132.597999-296.000327-296.070019-296.000326z" fill="#FFE416" p-id="5033"></path><path d="M512.162887 490.820282a20.015844 20.015844 0 1 0 14.13375 5.854216 20.071599 20.071599 0 0 0-14.13375-5.854216zM526.296637 788.925339a19.987967 19.987967 0 1 0 5.868155 14.13375 20.141292 20.141292 0 0 0-5.868155-14.13375zM377.780745 643.880161a19.987967 19.987967 0 1 0 5.868155 14.13375 20.15523 20.15523 0 0 0-5.868155-14.13375zM648.078275 643.880161a20.015844 20.015844 0 1 0 14.133751-5.854217 20.15523 20.15523 0 0 0-14.133751 5.854217zM662.198087 899.305193a20.001906 20.001906 0 1 0 14.133751 5.854216 20.141292 20.141292 0 0 0-14.133751-5.854216zM363.605179 899.305193a20.001906 20.001906 0 1 0 14.133751 5.854216 20.15523 20.15523 0 0 0-14.133751-5.854216z" fill="" p-id="5034"></path><path d="M872.266882 169.869843a20.001906 20.001906 0 0 0-19.346791-14.928252A451.778235 451.778235 0 0 0 722.301374 174.232628c34.930157-70.822079 80.328211-116.721922 80.84394-117.251589a20.001906 20.001906 0 0 0-14.105874-34.177473c-73.540108 0-142.591983 32.4909-193.746682 90.140993A383.200272 383.200272 0 0 0 526.965691 6.551147a20.001906 20.001906 0 0 0-29.59167 0 383.116641 383.116641 0 0 0-68.731287 107.173974c-51.182577-58.16582-120.527163-90.96337-194.415735-90.963371a20.001906 20.001906 0 0 0-14.119812 34.163534c0.529667 0.529667 45.83015 46.33194 80.746369 117.000694a451.903682 451.903682 0 0 0-129.7824-18.984387A20.001906 20.001906 0 0 0 161.230497 192.352821c0.292711 0.167263 30.302539 17.381447 64.117607 51.75406A20.001906 20.001906 0 0 0 253.852562 216.048458c-5.575444-5.700892-11.150888-10.955748-16.419683-15.806384 100.079221 16.140911 188.045791 68.173743 239.813789 142.954387a313.730239 313.730239 0 0 0-125.447492 41.815831 361.107575 361.107575 0 0 0-17.771728-51.25227A20.001906 20.001906 0 0 0 297.438596 349.71973a320.908623 320.908623 0 0 1 19.179528 59.517866 315.598013 315.598013 0 0 0-120.45747 248.02363v212.995903a153.910134 153.910134 0 0 0 153.742871 153.742871h324.518723a153.910134 153.910134 0 0 0 153.742871-153.742871V657.261226a315.611951 315.611951 0 0 0-120.680487-248.232709c12.990785-59.657252 42.247928-113.739059 87.172068-160.795808 35.418009-37.118519 67.783462-55.684748 68.076172-55.852011a20.001906 20.001906 0 0 0 9.53401-22.510855z m-131.259893-101.445205c-22.009066 28.908678-50.290506 72.188062-71.017219 125.322044a413.976724 413.976724 0 0 0-46.23437 24.378629 381.31856 381.31856 0 0 0-12.544749-61.329885c33.912639-45.621071 79.519771-76.369645 129.796338-88.370788z m-458.733601 0c50.65291 12.098714 96.552753 43.209692 130.604778 89.444061a381.91792 381.91792 0 0 0-12.293854 60.451753 414.046417 414.046417 0 0 0-47.391275-24.964051c-20.782468-52.95278-48.980276-96.106717-70.933587-124.931763z m156.112435 176.170094A343.489172 343.489172 0 0 1 512.093194 50.875927a343.684312 343.684312 0 0 1 73.735248 192.199497c0 0.418158 0.083632 0.808439 0.139386 1.226597a361.344531 361.344531 0 0 0-53.85879 52.116464V167.263323a20.001906 20.001906 0 1 0-40.003812 0v129.489689a361.010005 361.010005 0 0 0-53.747281-52.15828zM689.531702 446.035527l-31.933356 31.933356-91.311836-91.311835A275.189982 275.189982 0 0 1 689.531702 446.035527z m98.629606 424.291295a113.613612 113.613612 0 0 1-2.787722 24.782849l-95.47948-95.590989 98.267202-98.267202z m-126.548643-98.964132l-120.387776-120.513224 116.373457-116.373457 120.387776 120.387776z m-269.015177 28.28144l120.387777-120.387777L633.359102 799.518682 512.92951 919.948275z m-85.764269-326.609515l33.159954 33.159954-98.852624 98.852624a275.329368 275.329368 0 0 1 65.69267-132.012578z m153.129572-86.809664l-91.674239 91.674239-32.658164-32.630286a275.120289 275.120289 0 0 1 124.332403-59.043953zM236.108711 870.257129V699.718233l99.814388 99.814388L239.203083 896.252637A113.641489 113.641489 0 0 1 236.108711 870.257129z m11.73631-215.393344l120.387776-120.387776 116.373457 116.359518-120.387776 120.387777z m265.084489-32.295759l-116.373457-116.359519 116.373457-116.373456 116.373457 116.373456zM256.709977 935.350439l107.550317-107.550316 134.535465 134.535465L520.45636 984.065882H349.903525a113.669366 113.669366 0 0 1-93.193548-48.715443zM674.422248 984.065882H576.768345a20.322494 20.322494 0 0 0-1.686572-1.951406l-33.856884-33.926577 120.387776-120.387776 106.644307 106.644306a113.683305 113.683305 0 0 1-93.834724 49.621453z m108.400572-380.858586l-96.956973-96.943034L718.217362 473.912748a275.343306 275.343306 0 0 1 64.605458 129.238794z m-110.672565-218.292575a313.730239 313.730239 0 0 0-125.447492-41.704321C598.512577 268.471571 686.325821 216.480555 786.251718 200.297829c-40.296522 36.658545-91.060941 97.528456-114.101463 184.561138z" fill="" p-id="5035"></path><path d="M282.95638 302.593289a20.001906 20.001906 0 0 0 16.475437-31.320057l-0.209079-0.292711a20.001906 20.001906 0 1 0-32.978752 22.636303l0.20908 0.292711a19.974028 19.974028 0 0 0 16.503314 8.683754z" fill="" p-id="5036"></path></svg>